<svg width="35" height="37" viewBox="0 0 35 37" fill="none" xmlns="http://www.w3.org/2000/svg">
<path d="M31.2332 16.833V26.333C31.2332 27.2171 30.882 28.0649 30.2569 28.69C29.6318 29.3152 28.7839 29.6663 27.8999 29.6663H10.8665C9.98248 29.6663 9.13464 29.3152 8.50951 28.69C7.88439 28.0649 7.5332 27.2171 7.5332 26.333V4.66634C7.5332 3.78229 7.88439 2.93444 8.50951 2.30932C9.13464 1.6842 9.98248 1.33301 10.8665 1.33301H20.6999" stroke="white" stroke-width="2.5" stroke-linecap="round" stroke-linejoin="bevel"/>
<path d="M25.8825 30.5165V31.5998C25.8825 32.4839 25.5314 33.3317 24.9062 33.9568C24.2811 34.5819 23.4333 34.9331 22.5492 34.9331H5.53255C4.6485 34.9331 3.80065 34.5819 3.17553 33.9568C2.55041 33.3317 2.19922 32.4839 2.19922 31.5998V8.38314C2.19922 7.49908 2.55041 6.65124 3.17553 6.02612C3.80065 5.40099 4.6485 5.0498 5.53255 5.0498H7.01589" stroke="white" stroke-width="2.5" stroke-linecap="round" stroke-linejoin="bevel"/>
<path d="M30.1666 1.74983C30.0117 1.59362 29.8274 1.46963 29.6243 1.38501C29.4212 1.3004 29.2033 1.25684 28.9833 1.25684C28.7633 1.25684 28.5454 1.3004 28.3423 1.38501C28.1392 1.46963 27.9549 1.59362 27.8 1.74983L17.8 11.7498L17.6333 16.7498C17.6307 16.8001 17.6389 16.8504 17.6575 16.8972C17.676 16.944 17.7045 16.9863 17.7409 17.0211C17.7773 17.0559 17.8207 17.0824 17.8683 17.0989C17.9159 17.1154 17.9665 17.1214 18.0166 17.1165L23.0166 16.9498L33.0166 6.94983C33.305 6.63862 33.4638 6.22914 33.4607 5.80486C33.4576 5.38059 33.2928 4.97347 33 4.6665L30.1666 1.74983Z" stroke="white" stroke-width="2.5" stroke-linecap="round" stroke-linejoin="round"/>
</svg>
