<svg width="40" height="40" viewBox="0 0 40 40" fill="none" xmlns="http://www.w3.org/2000/svg">
<path d="M11.6673 30.0002C13.5083 30.0002 15.0007 28.5078 15.0007 26.6668C15.0007 24.8259 13.5083 23.3335 11.6673 23.3335C9.82637 23.3335 8.33398 24.8259 8.33398 26.6668C8.33398 28.5078 9.82637 30.0002 11.6673 30.0002Z" stroke="white" stroke-width="2.5" stroke-linecap="round" stroke-linejoin="round"/>
<path d="M26.668 15C29.4294 15 31.668 12.7614 31.668 10C31.668 7.23858 29.4294 5 26.668 5C23.9065 5 21.668 7.23858 21.668 10C21.668 12.7614 23.9065 15 26.668 15Z" stroke="white" stroke-width="2.5" stroke-linecap="round" stroke-linejoin="round"/>
<path d="M30.0007 36.6668C33.6826 36.6668 36.6673 33.6821 36.6673 30.0002C36.6673 26.3183 33.6826 23.3335 30.0007 23.3335C26.3188 23.3335 23.334 26.3183 23.334 30.0002C23.334 33.6821 26.3188 36.6668 30.0007 36.6668Z" stroke="white" stroke-width="2.5" stroke-linecap="round" stroke-linejoin="round"/>
<path d="M6.66732 10.0002C8.50827 10.0002 10.0007 8.50778 10.0007 6.66683C10.0007 4.82588 8.50827 3.3335 6.66732 3.3335C4.82637 3.3335 3.33398 4.82588 3.33398 6.66683C3.33398 8.50778 4.82637 10.0002 6.66732 10.0002Z" stroke="white" stroke-width="2.5" stroke-linecap="round" stroke-linejoin="round"/>
<path d="M23.3333 30.0002L15 28.3335" stroke="white" stroke-width="2.5" stroke-linecap="round" stroke-linejoin="round"/>
<path d="M28.334 15L30.4673 23.3667" stroke="white" stroke-width="2.5" stroke-linecap="round" stroke-linejoin="round"/>
<path d="M10 6.66699L21.6667 8.33366" stroke="white" stroke-width="2.5" stroke-linecap="round" stroke-linejoin="round"/>
<path d="M11.2342 23.3333C11.6676 23.3333 7.26758 10 7.26758 10" stroke="white" stroke-width="2.5" stroke-linecap="round" stroke-linejoin="round"/>
</svg>
