<svg width="38" height="35" viewBox="0 0 38 35" fill="none" xmlns="http://www.w3.org/2000/svg">
<path d="M7.65625 0.627812C5.79145 0.627812 4.00302 1.3686 2.68441 2.68722C1.36579 4.00583 0.625 5.79426 0.625 7.65906V24.5341C0.625 26.3989 1.36579 28.1873 2.68441 29.5059C4.00302 30.8245 5.79145 31.5653 7.65625 31.5653H19.6966C19.7894 30.9578 19.9919 30.3559 20.3181 29.7934L20.92 28.7528H7.65625C6.53737 28.7528 5.46431 28.3083 4.67314 27.5172C3.88197 26.726 3.4375 25.6529 3.4375 24.5341V9.0625H28.75V12.4206C29.6466 12.0661 30.5986 11.8719 31.5625 11.8469V7.65625C31.5625 5.79145 30.8217 4.00302 29.5031 2.68441C28.1845 1.36579 26.3961 0.625 24.5312 0.625H7.65625V0.627812ZM3.67375 6.25C3.96468 5.42712 4.50367 4.71474 5.21643 4.21102C5.9292 3.7073 6.78065 3.43704 7.65344 3.4375H24.5284C25.4007 3.43762 26.2516 3.70815 26.9638 4.21183C27.676 4.71551 28.2145 5.42758 28.5053 6.25H3.67375Z" fill="white"/>
<path d="M24.2952 16.6846L19.9021 12.2859C19.6369 12.0297 19.2817 11.888 18.913 11.8912C18.5443 11.8944 18.1915 12.0423 17.9308 12.303C17.6701 12.5637 17.5222 12.9164 17.519 13.2851C17.5158 13.6539 17.6575 14.0091 17.9137 14.2743L22.5431 18.9065L17.9137 23.5359C17.7794 23.6656 17.6722 23.8208 17.5985 23.9923C17.5248 24.1639 17.4861 24.3484 17.4844 24.5351C17.4828 24.7219 17.5184 24.907 17.5891 25.0799C17.6598 25.2527 17.7642 25.4097 17.8963 25.5417C18.0283 25.6738 18.1853 25.7782 18.3581 25.8489C18.5309 25.9196 18.7161 25.9552 18.9028 25.9536C19.0896 25.9519 19.2741 25.9131 19.4457 25.8394C19.6172 25.7657 19.7724 25.6586 19.9021 25.5243L23.7496 21.6768C23.4003 19.995 23.5913 18.2458 24.2952 16.679V16.6846Z" fill="white"/>
<path d="M14.2732 12.2882C14.5368 12.5519 14.6849 12.9095 14.6849 13.2824C14.6849 13.6553 14.5368 14.0129 14.2732 14.2766L9.64384 18.9088L14.2732 23.5382C14.4075 23.6679 14.5147 23.8231 14.5884 23.9947C14.6621 24.1662 14.7009 24.3508 14.7025 24.5375C14.7041 24.7242 14.6685 24.9094 14.5978 25.0822C14.5271 25.255 14.4227 25.412 14.2906 25.5441C14.1586 25.6761 14.0016 25.7805 13.8288 25.8512C13.656 25.9219 13.4708 25.9575 13.2841 25.9559C13.0973 25.9543 12.9128 25.9155 12.7412 25.8418C12.5697 25.7681 12.4145 25.6609 12.2848 25.5266L6.65978 19.9016C6.39615 19.6379 6.24805 19.2803 6.24805 18.9074C6.24805 18.5345 6.39615 18.1769 6.65978 17.9132L12.2848 12.2882C12.5485 12.0246 12.9061 11.8765 13.279 11.8765C13.6519 11.8765 14.0095 12.0246 14.2732 12.2882Z" fill="white"/>
<path d="M30.2147 19.1313L32.746 14.7438C31.6915 14.5467 30.6022 14.6698 29.6184 15.0973C28.6345 15.5248 27.8012 16.2371 27.2257 17.1424C26.6503 18.0476 26.359 19.1045 26.3894 20.1767C26.4199 21.249 26.7707 22.2876 27.3966 23.1588L22.7532 31.2025C22.4827 31.7147 22.4213 32.3118 22.5819 32.8684C22.7424 33.4249 23.1124 33.8976 23.6141 34.187C24.1159 34.4765 24.7103 34.5602 25.2724 34.4206C25.8346 34.281 26.3208 33.929 26.6288 33.4385L31.2835 25.3806C32.3473 25.4767 33.4156 25.2534 34.3518 24.7393C35.2881 24.2253 36.0499 23.4438 36.5399 22.4946C37.0298 21.5455 37.2257 20.4719 37.1025 19.4109C36.9793 18.3499 36.5426 17.3497 35.8482 16.5381L33.3169 20.9228C33.202 21.1317 33.0466 21.3155 32.8597 21.4636C32.6728 21.6116 32.4583 21.7208 32.2287 21.7849C31.999 21.849 31.7589 21.8665 31.5224 21.8366C31.2859 21.8067 31.0577 21.7299 30.8513 21.6106C30.6448 21.4914 30.4643 21.3322 30.3201 21.1423C30.176 20.9524 30.0713 20.7356 30.012 20.5047C29.9527 20.2738 29.9401 20.0334 29.9749 19.7976C30.0097 19.5617 30.0913 19.3352 30.2147 19.1313Z" fill="white"/>
</svg>
