<svg width="40" height="40" viewBox="0 0 40 40" fill="none" xmlns="http://www.w3.org/2000/svg">
<path d="M35.4492 15.8664L36.0326 12.1997C36.112 11.7428 36.0288 11.2725 35.7973 10.8705C35.5659 10.4686 35.201 10.1605 34.7659 9.99974L31.3159 8.6664L29.9992 5.23307C29.839 4.80127 29.5335 4.4387 29.1351 4.20758C28.7367 3.97645 28.2703 3.89118 27.8159 3.9664L24.1492 4.54974L21.2826 2.2164C20.9252 1.92395 20.4777 1.76416 20.0159 1.76416C19.5541 1.76416 19.1066 1.92395 18.7492 2.2164L15.8659 4.54974L12.1992 3.9664C11.7423 3.88699 11.272 3.97023 10.87 4.20164C10.4681 4.43306 10.16 4.79802 9.99925 5.23307L8.66591 8.68307L5.23258 9.99974C4.80078 10.16 4.43821 10.4655 4.20709 10.8639C3.97596 11.2623 3.89069 11.7287 3.96591 12.1831L4.54925 15.8497L2.21591 18.7164C1.92346 19.0738 1.76367 19.5213 1.76367 19.9831C1.76367 20.4448 1.92346 20.8924 2.21591 21.2497L4.54925 24.1164L3.96591 27.7831C3.88226 28.2425 3.96345 28.7168 4.19516 29.1223C4.42687 29.5278 4.79425 29.8385 5.23258 29.9997L8.68258 31.3331L9.99925 34.7664C10.1595 35.1982 10.465 35.5608 10.8634 35.7919C11.2618 36.023 11.7282 36.1083 12.1826 36.0331L15.8492 35.4497L18.7159 37.7831C19.0733 38.0755 19.5208 38.2353 19.9826 38.2353C20.4443 38.2353 20.8919 38.0755 21.2492 37.7831L24.1159 35.4497L27.7826 36.0331C28.2421 36.1167 28.7163 36.0355 29.1218 35.8038C29.5273 35.5721 29.838 35.2047 29.9992 34.7664L31.3326 31.3164L34.7826 29.9831C35.2144 29.8228 35.5769 29.5173 35.8081 29.1189C36.0392 28.7205 36.1245 28.2541 36.0492 27.7997L35.4659 24.1331L37.7992 21.2664C38.0917 20.909 38.2515 20.4615 38.2515 19.9997C38.2515 19.538 38.0917 19.0904 37.7992 18.7331L35.4492 15.8664Z" stroke="white" stroke-width="2.5" stroke-linecap="round" stroke-linejoin="round"/>
<path d="M29.3085 17.5067L29.6602 15.2949C29.7081 15.0193 29.6579 14.7356 29.5183 14.4931C29.3788 14.2507 29.1588 14.0648 28.8965 13.9678L26.8163 13.1635L26.0224 11.0925C25.9258 10.832 25.7416 10.6133 25.5014 10.4739C25.2612 10.3345 24.98 10.2831 24.706 10.3284L22.4952 10.6803L20.7668 9.2728C20.5513 9.09639 20.2815 9 20.0031 9C19.7247 9 19.4548 9.09639 19.2393 9.2728L17.5009 10.6803L15.2901 10.3284C15.0146 10.2805 14.731 10.3307 14.4887 10.4703C14.2463 10.6099 14.0605 10.8301 13.9636 11.0925L13.1597 13.1736L11.0896 13.9678C10.8292 14.0645 10.6106 14.2488 10.4713 14.4891C10.3319 14.7294 10.2805 15.0108 10.3259 15.2849L10.6776 17.4967L9.27072 19.2259C9.09439 19.4414 8.99805 19.7114 8.99805 19.9899C8.99805 20.2685 9.09439 20.5385 9.27072 20.754L10.6776 22.4832L10.3259 24.695C10.2754 24.9722 10.3244 25.2583 10.4641 25.5029C10.6038 25.7475 10.8253 25.9349 11.0896 26.0322L13.1697 26.8365L13.9636 28.9075C14.0602 29.168 14.2444 29.3867 14.4846 29.5261C14.7248 29.6655 15.0061 29.7169 15.28 29.6716L17.4908 29.3197L19.2192 30.7272C19.4347 30.9036 19.7046 31 19.983 31C20.2614 31 20.5312 30.9036 20.7467 30.7272L22.4751 29.3197L24.6859 29.6716C24.963 29.722 25.2489 29.6731 25.4934 29.5333C25.7379 29.3935 25.9252 29.1719 26.0224 28.9075L26.8264 26.8264L28.9065 26.0221C29.1669 25.9255 29.3855 25.7412 29.5248 25.5008C29.6642 25.2605 29.7156 24.9792 29.6702 24.7051L29.3185 22.4933L30.7254 20.7641C30.9017 20.5485 30.998 20.2785 30.998 20C30.998 19.7215 30.9017 19.4515 30.7254 19.2359L29.3085 17.5067Z" stroke="white" stroke-width="2.5" stroke-linecap="round" stroke-linejoin="round"/>
</svg>
