<svg width="50" height="51" viewBox="0 0 50 51" fill="none" xmlns="http://www.w3.org/2000/svg">
<g clip-path="url(#clip0_512_794)" filter="url(#filter0_d_512_794)">
<path d="M16.8517 11.5596C16.8281 20.0361 16.8821 26.7391 16.811 34.0637C16.8652 36.5596 17.34 38.5809 18.2353 40.1272C19.9694 43.0008 22.8404 44.1199 25.9266 44.156C28.8566 44.156 31.1151 43.2811 32.7022 41.5312C34.2893 39.7813 35.0964 37.2922 35.1235 34.0637L35.0829 13.2688L31.7052 13.3095L31.7052 34.0637C31.6528 36.1409 31.3401 38.3625 29.7519 39.6796C27.2278 41.5822 22.5643 40.8278 21.1653 38.4181C20.1165 36.0877 20.2293 34.4337 20.2293 31.9884C20.2388 24.5592 20.27 18.7903 20.27 11.5597C20.3872 8.95945 20.9297 7.7446 23.3628 7.65303C24.665 7.65303 25.5874 8.00572 26.13 8.71108C26.7678 9.52944 26.8592 10.4451 26.8626 11.3969L26.8626 30.3606C26.8634 31.2277 26.7098 33.0471 25.9266 33.0871C24.8782 32.6703 24.9922 31.1578 24.9906 30.3606L24.9906 12.9433L21.613 12.9025L21.5722 30.3605C21.6196 33.4218 22.4363 36.4039 25.8859 36.4647C29.3682 36.1992 30.2686 33.1512 30.2809 30.3605L30.2809 11.3969C30.2809 9.44356 29.779 7.8293 28.7752 6.55421C27.2848 4.8498 25.2823 4.28774 23.3221 4.2753C21.4963 4.28029 20.0031 4.76495 18.7643 5.98451C17.3456 7.52151 16.8659 9.94798 16.8517 11.5596Z" fill="#DBB468"/>
</g>
<defs>
<filter id="filter0_d_512_794" x="-4" y="-2" width="57.4976" height="57.4975" filterUnits="userSpaceOnUse" color-interpolation-filters="sRGB">
<feFlood flood-opacity="0" result="BackgroundImageFix"/>
<feColorMatrix in="SourceAlpha" type="matrix" values="0 0 0 0 0 0 0 0 0 0 0 0 0 0 0 0 0 0 127 0" result="hardAlpha"/>
<feOffset dy="2"/>
<feGaussianBlur stdDeviation="2"/>
<feColorMatrix type="matrix" values="0 0 0 0 0 0 0 0 0 0 0 0 0 0 0 0 0 0 0.1 0"/>
<feBlend mode="normal" in2="BackgroundImageFix" result="effect1_dropShadow_512_794"/>
<feBlend mode="normal" in="SourceGraphic" in2="effect1_dropShadow_512_794" result="shape"/>
</filter>
<clipPath id="clip0_512_794">
<rect width="35" height="35" fill="white" transform="translate(49.4976 24.7487) rotate(135)"/>
</clipPath>
</defs>
</svg>
