<svg width="18" height="18" viewBox="0 0 18 18" fill="none" xmlns="http://www.w3.org/2000/svg">
<path d="M7.07556 1.3319C10.1667 4.40584 12.5846 6.86305 15.2741 9.50083C16.162 10.4282 16.7244 11.3359 16.9612 12.2238C17.3756 13.8994 16.7384 15.3504 15.6293 16.4859C14.5638 17.5514 13.4242 18.0545 12.2107 17.9953C10.9972 17.9361 9.79857 17.3244 8.61465 16.1603L1.06723 8.58331L2.31034 7.36982L9.85774 14.9172C10.6322 15.6535 11.5538 16.3477 12.6103 16.2491C14.2201 16.0231 15.6417 14.0528 15.2741 12.6678C14.8081 11.4389 14.1655 10.8784 13.2763 9.98921C10.5712 7.29101 8.46195 5.20446 5.83249 2.57503C4.84429 1.67204 4.2052 1.42756 3.28711 2.27905C2.81355 2.75261 2.60637 3.21631 2.66556 3.67013C2.73124 4.19965 3.031 4.56589 3.37588 4.91323L10.2721 11.8095C10.5871 12.1251 11.3046 12.7309 11.604 12.4606C11.8337 11.9278 11.2422 11.4192 10.9529 11.1287L4.61898 4.79483L5.83246 3.55172L12.1959 9.88559C13.292 11.0161 14.0794 12.3975 12.8471 13.6741C11.4841 14.8439 10.0483 14.0629 9.02899 13.0525L2.13277 6.15631C1.42245 5.44598 1.01793 4.67644 0.919287 3.84769C0.841467 2.68588 1.36528 1.75327 2.07358 1.03592C2.73936 0.373775 3.45862 0.00701141 4.35262 5.72205e-06C5.42746 0.0430412 6.4843 0.750996 7.07556 1.3319Z" fill="black"/>
</svg>
